<svg xmlns="http://www.w3.org/2000/svg" width="205" height="48" viewBox="0 0 205 48">
    <g fill="#FFF" fill-rule="nonzero">
        <path d="M76.492 19.906a4.948 4.948 0 0 1-4.084 2.158c-2.09 0-4.282-1.442-4.282-4.316v-.072c1.284.4 2.624.597 3.97.58 3.845 0 6.246-.882 6.246-4.243 0-2.023-1.58-5.51-6.62-5.51S64 11.587 64 16.96c0 5.654 3.471 8.455 7.826 8.455 5.009 0 6.786-3.35 6.786-3.35l-2.12-2.159zm-4.978-8.156c2.161 0 3.054 1.515 3.054 2.438 0 1.235-1.34 1.505-3.086 1.505-2.193 0-3.295-.685-3.295-.685.001-1.95 1.404-3.257 3.327-3.257zM19.485 25.167l.103-15.114-5.966 12.084H10.38L4.828 10.673v14.494H0v-24.1h4.966l7.173 15.045 7.484-15.045h4.69v24.1zM27.316 16.835c0-5.06 2.828-8.47 7.76-8.47 4.896 0 7.758 3.408 7.758 8.47 0 5.096-2.827 8.539-7.759 8.539-4.931 0-7.76-3.409-7.76-8.539zm11.035.035c0-2.858-1.034-4.51-3.276-4.51-2.241 0-3.31 1.653-3.31 4.51 0 2.857 1 4.51 3.31 4.51 2.276 0 3.277-1.653 3.277-4.51zM62.252 25.097a6.526 6.526 0 0 1-1.966.242c-2.552 0-3.931-1.377-3.931-4.372v-5.44c0-1.825-1.035-3.064-2.691-3.064-2.173 0-2.966 1.86-3 3.236v9.468h-4.517V13.565c0-.93-.31-1.48-1.38-1.48V8.64a6.653 6.653 0 0 1 2-.242c1.794 0 2.897.724 3.311 2.342v.585c.483-1.48 1.862-2.96 4.897-2.96 4.242 0 5.897 2.96 5.897 6.575v5.234c0 .93.31 1.48 1.38 1.48v3.442zM92.016 22.757c-.793 1.377-2.345 2.617-5.14 2.617-3.828 0-5.276-2.376-5.276-5.888V8.572h4.519v9.744c0 2.065.93 2.96 2.345 2.96 2.448 0 3.276-2.41 3.276-3.442V8.572h4.518v17.353c0 4.717-3 7.747-7.725 7.747-5.345 0-7.277-3.582-7.277-3.582l2.345-2.41s1.345 1.997 4.277 1.997c2.172 0 4.138-1.102 4.138-3.787v-3.133zM116.33 25.167l-2.069-6.06h-8.656l-2.07 6.06h-5.069l8.967-24.1h5l8.932 24.1h-5.035zm-6.38-18.73l-3.172 9.09h6.31l-3.138-9.09zM124.126 25.167V12.119h-2.414V8.572h2.414V6.954c0-4.097 1.966-6.954 6.552-6.954 2.828 0 4.207 1.549 4.207 1.549l-1.38 3.34s-.724-.861-2.345-.861c-1.69 0-2.517 1.17-2.517 3.133v1.411h5.242v3.547h-5.241v13.048h-4.518zM136.818 25.167V13.565c0-.93-.31-1.48-1.38-1.48V8.64a5.755 5.755 0 0 1 1.897-.242c1.76 0 2.897.827 3.346 2.445v.585c.482-1.446 1.794-3.064 4.931-3.064 1.759 0 2.656.654 2.656.654l-1.863 3.959s-.654-.517-2.103-.517c-2.138 0-2.932 1.86-2.966 3.237v9.467l-4.518.002zM151.855 5.509c-1.552 0-2.794-1.102-2.794-2.687 0-1.549 1.242-2.686 2.794-2.686 1.586 0 2.828 1.136 2.828 2.686 0 1.585-1.241 2.687-2.828 2.687zm3.655 19.59c-.639.18-1.302.26-1.966.241-2.552 0-3.896-1.377-3.896-4.372V8.572h4.483v11.603c0 .93.31 1.48 1.38 1.48v3.443zM172.893 21.93s-1.863 3.444-7.002 3.444c-4.552 0-8-2.961-8-8.504 0-5.233 2.655-8.504 8-8.504 4.483 0 6.656 2.582 6.656 5.44a5.73 5.73 0 0 1-.31 1.996l-3.863.035c.131-.377.201-.772.208-1.17 0-.965-.414-2.307-2.691-2.307-2.242 0-3.552 1.376-3.552 4.475 0 3.512 2.241 4.545 4.173 4.545 2.759 0 4.034-1.86 4.034-1.86l2.347 2.41zM192 25.097a6.939 6.939 0 0 1-2 .242c-1.794 0-2.966-.757-3.38-2.513v-.379c-.31.654-1.517 2.927-5.07 2.927-3.207 0-6.62-2.583-6.62-8.435 0-6.196 3.276-8.573 6.931-8.573 2.759 0 4.243 1.549 4.76 1.997V8.572h4v11.602c0 .93.31 1.48 1.379 1.48v3.443zm-5.897-9.983a3.288 3.288 0 0 0-3.311-2.754c-1.931 0-3.414 1.48-3.414 4.51 0 3.167 1.724 4.51 3.448 4.51 2.828 0 3.242-2.892 3.277-2.789v-3.477zM.752 47.059v-6.845h1.033v5.956h3.101v.889H.752zm6.644 0v-6.845h4.292v.889h-3.26v2.086h3.036v.885H8.429v2.096h3.299v.889H7.396zm7.587 0h-1.096l2.463-6.845h1.193l2.463 6.845H18.91l-.625-1.812h-2.674l-.628 1.812zm.929-2.68h2.072l-1.01-2.922h-.053l-1.009 2.921zm6.414 2.68v-6.845h2.44c1.587 0 2.369.886 2.369 2.146 0 .919-.418 1.617-1.257 1.928l1.518 2.77h-1.177l-1.39-2.59h-1.47v2.59h-1.033zm1.032-3.48h1.31c1.006 0 1.428-.447 1.428-1.22 0-.775-.422-1.26-1.44-1.26h-1.298v2.48zm11.895-3.365v6.845h-.95l-3.478-5.02h-.064v5.02h-1.033v-6.845h.956l3.483 5.027h.063v-5.027h1.023zm3.87 0v6.845H38.09v-6.845h1.033zm8.362 0v6.845h-.949l-3.48-5.02h-.063v5.02h-1.032v-6.845h.955L46.4 45.24h.064v-5.027h1.022zm7.47 2.162c-.257-.812-.872-1.313-1.781-1.313-1.16 0-2.046.912-2.046 2.57 0 1.664.88 2.577 2.086 2.577 1.096 0 1.825-.699 1.848-1.802H53.37v-.852h2.69v.779c0 1.728-1.186 2.817-2.847 2.817-1.855 0-3.112-1.347-3.112-3.512 0-2.186 1.293-3.52 3.065-3.52 1.477 0 2.617.923 2.847 2.256h-1.059zm7.576 4.683v-6.845h2.44c1.591 0 2.37.956 2.37 2.216 0 1.263-.786 2.222-2.373 2.222h-1.404v2.407h-1.033zm1.033-3.282h1.31c1.01 0 1.427-.572 1.427-1.347 0-.776-.417-1.33-1.44-1.33h-1.297v2.677zm12.263-.14c0 2.189-1.31 3.515-3.082 3.515-1.778 0-3.085-1.33-3.085-3.516 0-2.189 1.307-3.516 3.085-3.516 1.771 0 3.082 1.327 3.082 3.516zm-1.023 0c0-1.668-.882-2.574-2.059-2.574-1.18 0-2.059.906-2.059 2.573 0 1.668.88 2.574 2.06 2.574 1.176 0 2.058-.906 2.058-2.574zm3.64 3.422v-6.845h2.44c1.587 0 2.369.886 2.369 2.146 0 .919-.418 1.617-1.257 1.928l1.518 2.77h-1.177l-1.39-2.59h-1.47v2.59h-1.034zm1.032-3.48h1.31c1.006 0 1.427-.447 1.427-1.22 0-.775-.42-1.26-1.44-1.26h-1.297v2.48zm6.033-2.476v-.89h5.297v.89H88.67v5.956h-1.029v-5.956h-2.132zm7.56 5.956h-1.097l2.464-6.845h1.193l2.463 6.845h-1.096l-.625-1.812h-2.674l-.628 1.812zm.929-2.68h2.072l-1.01-2.922h-.053l-1.01 2.921zm6.413 2.68v-6.845h1.033v5.956h3.102v.889h-4.135z"/>
    </g>
</svg>
